<mxfile host="app.diagrams.net" modified="2024-09-23T05:40:49.240Z" agent="Mozilla/5.0 (Windows NT 10.0; Win64; x64) AppleWebKit/537.36 (KHTML, like Gecko) Chrome/128.0.0.0 Safari/537.36" etag="pbWt_GgcjwDE8lLYpCi-" version="24.6.4" type="device">
  <diagram name="Страница — 1" id="eWN7Tm8XTWWky8Y0GNMi">
    <mxGraphModel dx="2251" dy="638" grid="1" gridSize="10" guides="1" tooltips="1" connect="1" arrows="1" fold="1" page="1" pageScale="1" pageWidth="827" pageHeight="1169" math="0" shadow="0">
      <root>
        <mxCell id="0" />
        <mxCell id="1" parent="0" />
        <mxCell id="uCHXC0AMj6-zmZblKq1V-1" value="Гость" style="shape=umlActor;verticalLabelPosition=bottom;verticalAlign=top;html=1;outlineConnect=0;" vertex="1" parent="1">
          <mxGeometry x="-810" y="200" width="50" height="90" as="geometry" />
        </mxCell>
        <mxCell id="uCHXC0AMj6-zmZblKq1V-4" value="Регистрация" style="ellipse;whiteSpace=wrap;html=1;" vertex="1" parent="1">
          <mxGeometry x="-643" y="150" width="103" height="40" as="geometry" />
        </mxCell>
        <mxCell id="uCHXC0AMj6-zmZblKq1V-5" value="Авторизация" style="ellipse;whiteSpace=wrap;html=1;" vertex="1" parent="1">
          <mxGeometry x="-643" y="360" width="103" height="40" as="geometry" />
        </mxCell>
        <mxCell id="uCHXC0AMj6-zmZblKq1V-6" value="Ввести пароль" style="ellipse;whiteSpace=wrap;html=1;" vertex="1" parent="1">
          <mxGeometry x="-643" y="255" width="103" height="40" as="geometry" />
        </mxCell>
        <mxCell id="uCHXC0AMj6-zmZblKq1V-7" value="Ввести имя" style="ellipse;whiteSpace=wrap;html=1;" vertex="1" parent="1">
          <mxGeometry x="-600" y="60" width="103" height="40" as="geometry" />
        </mxCell>
        <mxCell id="uCHXC0AMj6-zmZblKq1V-8" value="Ввести email" style="ellipse;whiteSpace=wrap;html=1;" vertex="1" parent="1">
          <mxGeometry x="-437" y="255" width="103" height="40" as="geometry" />
        </mxCell>
        <mxCell id="uCHXC0AMj6-zmZblKq1V-11" value="&amp;lt;&amp;lt;include&amp;gt;&amp;gt;" style="html=1;verticalAlign=bottom;labelBackgroundColor=none;endArrow=open;endFill=0;dashed=1;rounded=0;exitX=0.5;exitY=1;exitDx=0;exitDy=0;entryX=0.5;entryY=0;entryDx=0;entryDy=0;" edge="1" parent="1" source="uCHXC0AMj6-zmZblKq1V-4" target="uCHXC0AMj6-zmZblKq1V-6">
          <mxGeometry width="160" relative="1" as="geometry">
            <mxPoint x="-494" y="310" as="sourcePoint" />
            <mxPoint x="-334" y="310" as="targetPoint" />
          </mxGeometry>
        </mxCell>
        <mxCell id="uCHXC0AMj6-zmZblKq1V-14" value="&amp;lt;&amp;lt;include&amp;gt;&amp;gt;" style="html=1;verticalAlign=bottom;labelBackgroundColor=none;endArrow=open;endFill=0;dashed=1;rounded=0;exitX=0.5;exitY=0;exitDx=0;exitDy=0;entryX=0.5;entryY=1;entryDx=0;entryDy=0;" edge="1" parent="1" source="uCHXC0AMj6-zmZblKq1V-5" target="uCHXC0AMj6-zmZblKq1V-6">
          <mxGeometry width="160" relative="1" as="geometry">
            <mxPoint x="-480" y="260" as="sourcePoint" />
            <mxPoint x="-320" y="260" as="targetPoint" />
          </mxGeometry>
        </mxCell>
        <mxCell id="uCHXC0AMj6-zmZblKq1V-15" value="&amp;lt;&amp;lt;include&amp;gt;&amp;gt;" style="html=1;verticalAlign=bottom;labelBackgroundColor=none;endArrow=open;endFill=0;dashed=1;rounded=0;exitX=1;exitY=0.5;exitDx=0;exitDy=0;entryX=0;entryY=0;entryDx=0;entryDy=0;" edge="1" parent="1" source="uCHXC0AMj6-zmZblKq1V-4" target="uCHXC0AMj6-zmZblKq1V-8">
          <mxGeometry x="0.1776" y="1" width="160" relative="1" as="geometry">
            <mxPoint x="-480" y="260" as="sourcePoint" />
            <mxPoint x="-320" y="260" as="targetPoint" />
            <mxPoint as="offset" />
          </mxGeometry>
        </mxCell>
        <mxCell id="uCHXC0AMj6-zmZblKq1V-16" value="&amp;lt;&amp;lt;include&amp;gt;&amp;gt;" style="html=1;verticalAlign=bottom;labelBackgroundColor=none;endArrow=open;endFill=0;dashed=1;rounded=0;exitX=1;exitY=0.5;exitDx=0;exitDy=0;entryX=0;entryY=1;entryDx=0;entryDy=0;" edge="1" parent="1" source="uCHXC0AMj6-zmZblKq1V-5" target="uCHXC0AMj6-zmZblKq1V-8">
          <mxGeometry x="0.2306" y="-12" width="160" relative="1" as="geometry">
            <mxPoint x="-480" y="260" as="sourcePoint" />
            <mxPoint x="-320" y="260" as="targetPoint" />
            <mxPoint as="offset" />
          </mxGeometry>
        </mxCell>
        <mxCell id="uCHXC0AMj6-zmZblKq1V-17" value="&amp;lt;&amp;lt;include&amp;gt;&amp;gt;" style="html=1;verticalAlign=bottom;labelBackgroundColor=none;endArrow=open;endFill=0;dashed=1;rounded=0;exitX=0.5;exitY=0;exitDx=0;exitDy=0;entryX=0.5;entryY=1;entryDx=0;entryDy=0;" edge="1" parent="1" source="uCHXC0AMj6-zmZblKq1V-4" target="uCHXC0AMj6-zmZblKq1V-7">
          <mxGeometry width="160" relative="1" as="geometry">
            <mxPoint x="-480" y="260" as="sourcePoint" />
            <mxPoint x="-320" y="260" as="targetPoint" />
          </mxGeometry>
        </mxCell>
        <mxCell id="uCHXC0AMj6-zmZblKq1V-25" value="" style="endArrow=none;html=1;rounded=0;exitX=1;exitY=0.3333333333333333;exitDx=0;exitDy=0;exitPerimeter=0;entryX=0;entryY=0.5;entryDx=0;entryDy=0;" edge="1" parent="1" source="uCHXC0AMj6-zmZblKq1V-1" target="uCHXC0AMj6-zmZblKq1V-4">
          <mxGeometry width="50" height="50" relative="1" as="geometry">
            <mxPoint x="-530" y="230" as="sourcePoint" />
            <mxPoint x="-480" y="180" as="targetPoint" />
          </mxGeometry>
        </mxCell>
        <mxCell id="uCHXC0AMj6-zmZblKq1V-26" value="" style="endArrow=none;html=1;rounded=0;entryX=0;entryY=0.5;entryDx=0;entryDy=0;" edge="1" parent="1" target="uCHXC0AMj6-zmZblKq1V-5">
          <mxGeometry width="50" height="50" relative="1" as="geometry">
            <mxPoint x="-760" y="230" as="sourcePoint" />
            <mxPoint x="-633" y="180" as="targetPoint" />
          </mxGeometry>
        </mxCell>
        <mxCell id="uCHXC0AMj6-zmZblKq1V-28" value="" style="swimlane;startSize=0;" vertex="1" parent="1">
          <mxGeometry x="-740" y="50" width="430" height="360" as="geometry" />
        </mxCell>
      </root>
    </mxGraphModel>
  </diagram>
</mxfile>
